<svg version="1" xmlns="http://www.w3.org/2000/svg" width="682.667" height="682.667" viewBox="0 0 512.000000 512.000000"><path d="M43.6 1.6C28.3 5.3 12.8 17.5 6.2 31.1-.4 44.7 0 29.6 0 256s-.4 211.3 6.2 224.9c4.4 9 15.9 20.5 24.9 24.9 13.6 6.6-1.5 6.2 224.9 6.2s211.3.4 224.9-6.2c9-4.4 20.5-15.9 24.9-24.9 6.6-13.6 6.2 1.5 6.2-224.9s.4-211.3-6.2-224.9c-4.4-9-15.9-20.5-24.9-24.9C467.2-.4 482.5 0 255.5.1 80.6.2 48.6.4 43.6 1.6zM195 90.4c20 5.4 41.9 19.3 54.9 34.6 3 3.6 5.7 6.6 6 6.7.3.1 3.2-3 6.4-6.8 12.8-15.3 34.7-29.1 54.7-34.5 14.1-3.8 33.7-4.4 48-1.4 37.9 7.8 68.6 33.8 81.7 69.3 5.6 15.4 7.9 37.6 5.3 53.4-5.5 35-16.7 62.6-38.7 96.1-13.5 20.5-27.3 37.3-46.8 56.7-34.3 34.3-69 59-101.9 72.6l-8.9 3.7-8.1-3.5c-34.1-14.5-67.4-38.3-102.2-72.8-42.4-42-72-90.8-81.8-134.5-4.2-18.6-4.9-25.2-4.3-39.8.7-17.2 3.4-27.6 10.9-42.9 14.6-29.6 42.5-51.1 75.8-58.2 13.6-3 35.4-2.4 49 1.3z"/></svg>